<mxfile host="app.diagrams.net" modified="2022-07-22T05:35:11.366Z" agent="5.0 (Macintosh)" etag="rGYxnttTjOjX3_vwEEaz" version="20.1.4" type="github">
  <diagram id="xjsF8yRtONGzGr-w-AlS" name="Page-1">
    <mxGraphModel dx="2199" dy="795" grid="1" gridSize="10" guides="1" tooltips="1" connect="1" arrows="1" fold="1" page="1" pageScale="1" pageWidth="850" pageHeight="1100" math="0" shadow="0">
      <root>
        <mxCell id="0" />
        <mxCell id="1" parent="0" />
        <mxCell id="IGDG2CqREZUp9sP-JGGw-3" value="" style="endArrow=none;dashed=1;html=1;rounded=0;" edge="1" parent="1">
          <mxGeometry width="50" height="50" relative="1" as="geometry">
            <mxPoint x="520" y="800" as="sourcePoint" />
            <mxPoint x="520" y="40" as="targetPoint" />
          </mxGeometry>
        </mxCell>
        <mxCell id="IGDG2CqREZUp9sP-JGGw-6" value="&lt;font style=&quot;font-size: 17px;&quot;&gt;Process1&lt;/font&gt;" style="text;html=1;strokeColor=none;fillColor=none;align=center;verticalAlign=middle;whiteSpace=wrap;rounded=0;" vertex="1" parent="1">
          <mxGeometry x="-38" y="40" width="70" height="30" as="geometry" />
        </mxCell>
        <mxCell id="IGDG2CqREZUp9sP-JGGw-7" value="&lt;font style=&quot;font-size: 17px;&quot;&gt;Process2&lt;/font&gt;" style="text;html=1;strokeColor=none;fillColor=none;align=center;verticalAlign=middle;whiteSpace=wrap;rounded=0;" vertex="1" parent="1">
          <mxGeometry x="680" y="40" width="70" height="30" as="geometry" />
        </mxCell>
        <mxCell id="IGDG2CqREZUp9sP-JGGw-16" style="edgeStyle=orthogonalEdgeStyle;rounded=0;orthogonalLoop=1;jettySize=auto;html=1;exitX=0.5;exitY=1;exitDx=0;exitDy=0;entryX=0.5;entryY=0;entryDx=0;entryDy=0;fontSize=15;" edge="1" parent="1" source="IGDG2CqREZUp9sP-JGGw-9" target="IGDG2CqREZUp9sP-JGGw-11">
          <mxGeometry relative="1" as="geometry" />
        </mxCell>
        <mxCell id="IGDG2CqREZUp9sP-JGGw-9" value="&lt;font style=&quot;font-size: 15px;&quot;&gt;Get flushed block&lt;br&gt;&lt;/font&gt;" style="rounded=0;whiteSpace=wrap;html=1;fontSize=17;" vertex="1" parent="1">
          <mxGeometry x="620" y="100" width="190" height="40" as="geometry" />
        </mxCell>
        <mxCell id="IGDG2CqREZUp9sP-JGGw-17" style="edgeStyle=orthogonalEdgeStyle;rounded=0;orthogonalLoop=1;jettySize=auto;html=1;exitX=0.5;exitY=1;exitDx=0;exitDy=0;entryX=0.5;entryY=0;entryDx=0;entryDy=0;fontSize=15;" edge="1" parent="1" source="IGDG2CqREZUp9sP-JGGw-11" target="IGDG2CqREZUp9sP-JGGw-12">
          <mxGeometry relative="1" as="geometry" />
        </mxCell>
        <mxCell id="IGDG2CqREZUp9sP-JGGw-11" value="&lt;font style=&quot;font-size: 15px;&quot;&gt;Request Etherscan&lt;/font&gt;" style="rounded=0;whiteSpace=wrap;html=1;fontSize=17;" vertex="1" parent="1">
          <mxGeometry x="620" y="200" width="190" height="40" as="geometry" />
        </mxCell>
        <mxCell id="IGDG2CqREZUp9sP-JGGw-18" style="edgeStyle=orthogonalEdgeStyle;rounded=0;orthogonalLoop=1;jettySize=auto;html=1;exitX=0.5;exitY=1;exitDx=0;exitDy=0;entryX=0.5;entryY=0;entryDx=0;entryDy=0;fontSize=15;" edge="1" parent="1" source="IGDG2CqREZUp9sP-JGGw-12" target="IGDG2CqREZUp9sP-JGGw-13">
          <mxGeometry relative="1" as="geometry" />
        </mxCell>
        <mxCell id="IGDG2CqREZUp9sP-JGGw-19" style="edgeStyle=orthogonalEdgeStyle;rounded=0;orthogonalLoop=1;jettySize=auto;html=1;exitX=1;exitY=0.5;exitDx=0;exitDy=0;entryX=1;entryY=0.5;entryDx=0;entryDy=0;fontSize=15;" edge="1" parent="1" source="IGDG2CqREZUp9sP-JGGw-12" target="IGDG2CqREZUp9sP-JGGw-15">
          <mxGeometry relative="1" as="geometry">
            <Array as="points">
              <mxPoint x="860" y="330" />
              <mxPoint x="860" y="650" />
            </Array>
          </mxGeometry>
        </mxCell>
        <mxCell id="IGDG2CqREZUp9sP-JGGw-12" value="Source code" style="rhombus;whiteSpace=wrap;html=1;fontSize=15;" vertex="1" parent="1">
          <mxGeometry x="650" y="300" width="130" height="60" as="geometry" />
        </mxCell>
        <mxCell id="IGDG2CqREZUp9sP-JGGw-20" style="edgeStyle=orthogonalEdgeStyle;rounded=0;orthogonalLoop=1;jettySize=auto;html=1;exitX=0.5;exitY=1;exitDx=0;exitDy=0;entryX=0.5;entryY=0;entryDx=0;entryDy=0;fontSize=15;" edge="1" parent="1" source="IGDG2CqREZUp9sP-JGGw-13" target="IGDG2CqREZUp9sP-JGGw-14">
          <mxGeometry relative="1" as="geometry" />
        </mxCell>
        <mxCell id="IGDG2CqREZUp9sP-JGGw-13" value="&lt;font style=&quot;font-size: 15px;&quot;&gt;Parse source code&lt;/font&gt;" style="rounded=0;whiteSpace=wrap;html=1;fontSize=17;" vertex="1" parent="1">
          <mxGeometry x="620" y="410" width="190" height="40" as="geometry" />
        </mxCell>
        <mxCell id="IGDG2CqREZUp9sP-JGGw-21" style="edgeStyle=orthogonalEdgeStyle;rounded=0;orthogonalLoop=1;jettySize=auto;html=1;exitX=0.5;exitY=1;exitDx=0;exitDy=0;entryX=0.5;entryY=0;entryDx=0;entryDy=0;fontSize=15;" edge="1" parent="1" source="IGDG2CqREZUp9sP-JGGw-14" target="IGDG2CqREZUp9sP-JGGw-15">
          <mxGeometry relative="1" as="geometry" />
        </mxCell>
        <mxCell id="IGDG2CqREZUp9sP-JGGw-14" value="&lt;font style=&quot;font-size: 15px;&quot;&gt;Update signatures table&lt;br&gt;&lt;/font&gt;" style="rounded=0;whiteSpace=wrap;html=1;fontSize=17;" vertex="1" parent="1">
          <mxGeometry x="620" y="520" width="190" height="40" as="geometry" />
        </mxCell>
        <mxCell id="IGDG2CqREZUp9sP-JGGw-73" style="edgeStyle=orthogonalEdgeStyle;rounded=0;orthogonalLoop=1;jettySize=auto;html=1;exitX=0.5;exitY=1;exitDx=0;exitDy=0;entryX=0;entryY=0.5;entryDx=0;entryDy=0;fontSize=15;" edge="1" parent="1" source="IGDG2CqREZUp9sP-JGGw-15" target="IGDG2CqREZUp9sP-JGGw-11">
          <mxGeometry relative="1" as="geometry" />
        </mxCell>
        <mxCell id="IGDG2CqREZUp9sP-JGGw-15" value="&lt;font style=&quot;font-size: 15px;&quot;&gt;Update flushed block&lt;br&gt;&lt;/font&gt;" style="rounded=0;whiteSpace=wrap;html=1;fontSize=17;" vertex="1" parent="1">
          <mxGeometry x="620" y="630" width="190" height="40" as="geometry" />
        </mxCell>
        <mxCell id="IGDG2CqREZUp9sP-JGGw-25" value="Yes" style="text;html=1;strokeColor=none;fillColor=none;align=center;verticalAlign=middle;whiteSpace=wrap;rounded=0;fontSize=15;" vertex="1" parent="1">
          <mxGeometry x="710" y="360" width="60" height="30" as="geometry" />
        </mxCell>
        <mxCell id="IGDG2CqREZUp9sP-JGGw-26" value="No" style="text;html=1;strokeColor=none;fillColor=none;align=center;verticalAlign=middle;whiteSpace=wrap;rounded=0;fontSize=15;" vertex="1" parent="1">
          <mxGeometry x="780" y="300" width="60" height="30" as="geometry" />
        </mxCell>
        <mxCell id="IGDG2CqREZUp9sP-JGGw-52" style="edgeStyle=orthogonalEdgeStyle;rounded=0;orthogonalLoop=1;jettySize=auto;html=1;exitX=0.5;exitY=1;exitDx=0;exitDy=0;entryX=0.5;entryY=0;entryDx=0;entryDy=0;fontSize=15;" edge="1" parent="1" source="IGDG2CqREZUp9sP-JGGw-28" target="IGDG2CqREZUp9sP-JGGw-32">
          <mxGeometry relative="1" as="geometry" />
        </mxCell>
        <mxCell id="IGDG2CqREZUp9sP-JGGw-28" value="&lt;font style=&quot;font-size: 15px;&quot;&gt;Build map and hash table &lt;/font&gt;" style="rounded=0;whiteSpace=wrap;html=1;fontSize=17;" vertex="1" parent="1">
          <mxGeometry x="-138" y="100" width="270" height="40" as="geometry" />
        </mxCell>
        <mxCell id="IGDG2CqREZUp9sP-JGGw-43" style="edgeStyle=orthogonalEdgeStyle;rounded=0;orthogonalLoop=1;jettySize=auto;html=1;exitX=0.5;exitY=1;exitDx=0;exitDy=0;entryX=0.5;entryY=0;entryDx=0;entryDy=0;fontSize=15;" edge="1" parent="1" source="IGDG2CqREZUp9sP-JGGw-32" target="IGDG2CqREZUp9sP-JGGw-34">
          <mxGeometry relative="1" as="geometry" />
        </mxCell>
        <mxCell id="IGDG2CqREZUp9sP-JGGw-32" value="&lt;font style=&quot;font-size: 15px;&quot;&gt;Get flushed block&lt;br&gt;&lt;/font&gt;" style="rounded=0;whiteSpace=wrap;html=1;fontSize=17;" vertex="1" parent="1">
          <mxGeometry x="-138" y="200" width="270" height="40" as="geometry" />
        </mxCell>
        <mxCell id="IGDG2CqREZUp9sP-JGGw-44" style="edgeStyle=orthogonalEdgeStyle;rounded=0;orthogonalLoop=1;jettySize=auto;html=1;exitX=0.5;exitY=1;exitDx=0;exitDy=0;entryX=0.5;entryY=0;entryDx=0;entryDy=0;fontSize=15;" edge="1" parent="1" source="IGDG2CqREZUp9sP-JGGw-34" target="IGDG2CqREZUp9sP-JGGw-36">
          <mxGeometry relative="1" as="geometry" />
        </mxCell>
        <mxCell id="IGDG2CqREZUp9sP-JGGw-34" value="&lt;font style=&quot;font-size: 15px;&quot;&gt;Read trace from file&lt;br&gt;&lt;/font&gt;" style="rounded=0;whiteSpace=wrap;html=1;fontSize=17;" vertex="1" parent="1">
          <mxGeometry x="-138" y="290" width="270" height="40" as="geometry" />
        </mxCell>
        <mxCell id="IGDG2CqREZUp9sP-JGGw-45" style="edgeStyle=orthogonalEdgeStyle;rounded=0;orthogonalLoop=1;jettySize=auto;html=1;exitX=0.5;exitY=1;exitDx=0;exitDy=0;entryX=0.5;entryY=0;entryDx=0;entryDy=0;fontSize=15;" edge="1" parent="1" source="IGDG2CqREZUp9sP-JGGw-36" target="IGDG2CqREZUp9sP-JGGw-37">
          <mxGeometry relative="1" as="geometry" />
        </mxCell>
        <mxCell id="IGDG2CqREZUp9sP-JGGw-36" value="&lt;font style=&quot;font-size: 15px;&quot;&gt;Update contract table&lt;/font&gt;" style="rounded=0;whiteSpace=wrap;html=1;fontSize=17;" vertex="1" parent="1">
          <mxGeometry x="-138" y="400" width="270" height="40" as="geometry" />
        </mxCell>
        <mxCell id="IGDG2CqREZUp9sP-JGGw-47" style="edgeStyle=orthogonalEdgeStyle;rounded=0;orthogonalLoop=1;jettySize=auto;html=1;exitX=0.5;exitY=1;exitDx=0;exitDy=0;entryX=0.5;entryY=0;entryDx=0;entryDy=0;fontSize=15;" edge="1" parent="1" source="IGDG2CqREZUp9sP-JGGw-37" target="IGDG2CqREZUp9sP-JGGw-38">
          <mxGeometry relative="1" as="geometry" />
        </mxCell>
        <mxCell id="IGDG2CqREZUp9sP-JGGw-58" style="edgeStyle=orthogonalEdgeStyle;rounded=0;orthogonalLoop=1;jettySize=auto;html=1;exitX=1;exitY=0.5;exitDx=0;exitDy=0;entryX=1;entryY=0.5;entryDx=0;entryDy=0;fontSize=15;" edge="1" parent="1" source="IGDG2CqREZUp9sP-JGGw-37" target="IGDG2CqREZUp9sP-JGGw-54">
          <mxGeometry relative="1" as="geometry">
            <Array as="points">
              <mxPoint x="410" y="520" />
              <mxPoint x="410" y="1170" />
            </Array>
          </mxGeometry>
        </mxCell>
        <mxCell id="IGDG2CqREZUp9sP-JGGw-37" value="Bytecode in hash table?" style="rhombus;whiteSpace=wrap;html=1;fontSize=15;" vertex="1" parent="1">
          <mxGeometry x="-133" y="490" width="260" height="60" as="geometry" />
        </mxCell>
        <mxCell id="IGDG2CqREZUp9sP-JGGw-48" style="edgeStyle=orthogonalEdgeStyle;rounded=0;orthogonalLoop=1;jettySize=auto;html=1;exitX=0.5;exitY=1;exitDx=0;exitDy=0;entryX=0.5;entryY=0;entryDx=0;entryDy=0;fontSize=15;" edge="1" parent="1" source="IGDG2CqREZUp9sP-JGGw-38" target="IGDG2CqREZUp9sP-JGGw-40">
          <mxGeometry relative="1" as="geometry" />
        </mxCell>
        <mxCell id="IGDG2CqREZUp9sP-JGGw-38" value="&lt;font style=&quot;font-size: 15px;&quot;&gt;Start abi decompile&lt;/font&gt;" style="rounded=0;whiteSpace=wrap;html=1;fontSize=17;" vertex="1" parent="1">
          <mxGeometry x="-138" y="600" width="270" height="40" as="geometry" />
        </mxCell>
        <mxCell id="IGDG2CqREZUp9sP-JGGw-49" style="edgeStyle=orthogonalEdgeStyle;rounded=0;orthogonalLoop=1;jettySize=auto;html=1;exitX=0.5;exitY=1;exitDx=0;exitDy=0;entryX=0.5;entryY=0;entryDx=0;entryDy=0;fontSize=15;" edge="1" parent="1" source="IGDG2CqREZUp9sP-JGGw-40" target="IGDG2CqREZUp9sP-JGGw-41">
          <mxGeometry relative="1" as="geometry" />
        </mxCell>
        <mxCell id="IGDG2CqREZUp9sP-JGGw-59" style="edgeStyle=orthogonalEdgeStyle;rounded=0;orthogonalLoop=1;jettySize=auto;html=1;exitX=1;exitY=0.5;exitDx=0;exitDy=0;entryX=1;entryY=0.5;entryDx=0;entryDy=0;fontSize=15;" edge="1" parent="1" source="IGDG2CqREZUp9sP-JGGw-40" target="IGDG2CqREZUp9sP-JGGw-51">
          <mxGeometry relative="1" as="geometry">
            <Array as="points">
              <mxPoint x="320" y="710" />
              <mxPoint x="320" y="980" />
            </Array>
          </mxGeometry>
        </mxCell>
        <mxCell id="IGDG2CqREZUp9sP-JGGw-40" value="functionhash in hashtable? " style="rhombus;whiteSpace=wrap;html=1;fontSize=15;" vertex="1" parent="1">
          <mxGeometry x="-133" y="680" width="260" height="60" as="geometry" />
        </mxCell>
        <mxCell id="IGDG2CqREZUp9sP-JGGw-50" style="edgeStyle=orthogonalEdgeStyle;rounded=0;orthogonalLoop=1;jettySize=auto;html=1;exitX=0.5;exitY=1;exitDx=0;exitDy=0;fontSize=15;" edge="1" parent="1" source="IGDG2CqREZUp9sP-JGGw-41" target="IGDG2CqREZUp9sP-JGGw-42">
          <mxGeometry relative="1" as="geometry" />
        </mxCell>
        <mxCell id="IGDG2CqREZUp9sP-JGGw-63" style="edgeStyle=orthogonalEdgeStyle;rounded=0;orthogonalLoop=1;jettySize=auto;html=1;exitX=1;exitY=0.5;exitDx=0;exitDy=0;entryX=0.5;entryY=0;entryDx=0;entryDy=0;fontSize=15;" edge="1" parent="1" source="IGDG2CqREZUp9sP-JGGw-41" target="IGDG2CqREZUp9sP-JGGw-61">
          <mxGeometry relative="1" as="geometry" />
        </mxCell>
        <mxCell id="IGDG2CqREZUp9sP-JGGw-41" value="&lt;div&gt;functionhash in &lt;br&gt;&lt;/div&gt;&lt;div&gt;signature table? &lt;/div&gt;" style="rhombus;whiteSpace=wrap;html=1;fontSize=15;" vertex="1" parent="1">
          <mxGeometry x="-133" y="780" width="260" height="60" as="geometry" />
        </mxCell>
        <mxCell id="IGDG2CqREZUp9sP-JGGw-55" style="edgeStyle=orthogonalEdgeStyle;rounded=0;orthogonalLoop=1;jettySize=auto;html=1;exitX=0.5;exitY=1;exitDx=0;exitDy=0;entryX=0.5;entryY=0;entryDx=0;entryDy=0;fontSize=15;" edge="1" parent="1" source="IGDG2CqREZUp9sP-JGGw-42" target="IGDG2CqREZUp9sP-JGGw-51">
          <mxGeometry relative="1" as="geometry" />
        </mxCell>
        <mxCell id="IGDG2CqREZUp9sP-JGGw-42" value="&lt;font style=&quot;font-size: 15px;&quot;&gt;Request Etherscan&lt;br&gt;&lt;/font&gt;" style="rounded=0;whiteSpace=wrap;html=1;fontSize=17;" vertex="1" parent="1">
          <mxGeometry x="-138" y="880" width="270" height="40" as="geometry" />
        </mxCell>
        <mxCell id="IGDG2CqREZUp9sP-JGGw-56" style="edgeStyle=orthogonalEdgeStyle;rounded=0;orthogonalLoop=1;jettySize=auto;html=1;exitX=0.5;exitY=1;exitDx=0;exitDy=0;fontSize=15;" edge="1" parent="1" source="IGDG2CqREZUp9sP-JGGw-51" target="IGDG2CqREZUp9sP-JGGw-53">
          <mxGeometry relative="1" as="geometry" />
        </mxCell>
        <mxCell id="IGDG2CqREZUp9sP-JGGw-51" value="&lt;font style=&quot;font-size: 15px;&quot;&gt;Update contract_signature&lt;br&gt;&lt;/font&gt;" style="rounded=0;whiteSpace=wrap;html=1;fontSize=17;" vertex="1" parent="1">
          <mxGeometry x="-138" y="960" width="270" height="40" as="geometry" />
        </mxCell>
        <mxCell id="IGDG2CqREZUp9sP-JGGw-57" style="edgeStyle=orthogonalEdgeStyle;rounded=0;orthogonalLoop=1;jettySize=auto;html=1;exitX=0.5;exitY=1;exitDx=0;exitDy=0;entryX=0.5;entryY=0;entryDx=0;entryDy=0;fontSize=15;" edge="1" parent="1" source="IGDG2CqREZUp9sP-JGGw-53" target="IGDG2CqREZUp9sP-JGGw-54">
          <mxGeometry relative="1" as="geometry" />
        </mxCell>
        <mxCell id="IGDG2CqREZUp9sP-JGGw-53" value="&lt;font style=&quot;font-size: 15px;&quot;&gt;Update hash table&lt;br&gt;&lt;/font&gt;" style="rounded=0;whiteSpace=wrap;html=1;fontSize=17;" vertex="1" parent="1">
          <mxGeometry x="-138" y="1050" width="270" height="40" as="geometry" />
        </mxCell>
        <mxCell id="IGDG2CqREZUp9sP-JGGw-71" style="edgeStyle=orthogonalEdgeStyle;rounded=0;orthogonalLoop=1;jettySize=auto;html=1;exitX=0.5;exitY=1;exitDx=0;exitDy=0;entryX=0;entryY=0.5;entryDx=0;entryDy=0;fontSize=15;" edge="1" parent="1" source="IGDG2CqREZUp9sP-JGGw-54" target="IGDG2CqREZUp9sP-JGGw-34">
          <mxGeometry relative="1" as="geometry">
            <Array as="points">
              <mxPoint x="-3" y="1210" />
              <mxPoint x="-200" y="1210" />
              <mxPoint x="-200" y="310" />
            </Array>
          </mxGeometry>
        </mxCell>
        <mxCell id="IGDG2CqREZUp9sP-JGGw-54" value="&lt;font style=&quot;font-size: 15px;&quot;&gt;Update flashed block&lt;br&gt;&lt;/font&gt;" style="rounded=0;whiteSpace=wrap;html=1;fontSize=17;" vertex="1" parent="1">
          <mxGeometry x="-138" y="1150" width="270" height="40" as="geometry" />
        </mxCell>
        <mxCell id="IGDG2CqREZUp9sP-JGGw-64" style="edgeStyle=orthogonalEdgeStyle;rounded=0;orthogonalLoop=1;jettySize=auto;html=1;exitX=0.5;exitY=1;exitDx=0;exitDy=0;entryX=1;entryY=0.5;entryDx=0;entryDy=0;fontSize=15;" edge="1" parent="1" source="IGDG2CqREZUp9sP-JGGw-61" target="IGDG2CqREZUp9sP-JGGw-51">
          <mxGeometry relative="1" as="geometry" />
        </mxCell>
        <mxCell id="IGDG2CqREZUp9sP-JGGw-61" value="&lt;font style=&quot;font-size: 15px;&quot;&gt;update map&lt;/font&gt;" style="rounded=0;whiteSpace=wrap;html=1;fontSize=17;" vertex="1" parent="1">
          <mxGeometry x="190" y="840" width="100" height="40" as="geometry" />
        </mxCell>
        <mxCell id="IGDG2CqREZUp9sP-JGGw-65" value="Yes" style="text;html=1;strokeColor=none;fillColor=none;align=center;verticalAlign=middle;whiteSpace=wrap;rounded=0;fontSize=15;" vertex="1" parent="1">
          <mxGeometry x="150" y="490" width="60" height="30" as="geometry" />
        </mxCell>
        <mxCell id="IGDG2CqREZUp9sP-JGGw-66" value="No" style="text;html=1;strokeColor=none;fillColor=none;align=center;verticalAlign=middle;whiteSpace=wrap;rounded=0;fontSize=15;" vertex="1" parent="1">
          <mxGeometry y="560" width="60" height="30" as="geometry" />
        </mxCell>
        <mxCell id="IGDG2CqREZUp9sP-JGGw-67" value="Yes" style="text;html=1;strokeColor=none;fillColor=none;align=center;verticalAlign=middle;whiteSpace=wrap;rounded=0;fontSize=15;" vertex="1" parent="1">
          <mxGeometry x="150" y="670" width="60" height="30" as="geometry" />
        </mxCell>
        <mxCell id="IGDG2CqREZUp9sP-JGGw-68" value="No" style="text;html=1;strokeColor=none;fillColor=none;align=center;verticalAlign=middle;whiteSpace=wrap;rounded=0;fontSize=15;" vertex="1" parent="1">
          <mxGeometry x="10" y="750" width="60" height="30" as="geometry" />
        </mxCell>
        <mxCell id="IGDG2CqREZUp9sP-JGGw-69" value="Yes" style="text;html=1;strokeColor=none;fillColor=none;align=center;verticalAlign=middle;whiteSpace=wrap;rounded=0;fontSize=15;" vertex="1" parent="1">
          <mxGeometry x="140" y="780" width="60" height="30" as="geometry" />
        </mxCell>
        <mxCell id="IGDG2CqREZUp9sP-JGGw-70" value="No" style="text;html=1;strokeColor=none;fillColor=none;align=center;verticalAlign=middle;whiteSpace=wrap;rounded=0;fontSize=15;" vertex="1" parent="1">
          <mxGeometry x="10" y="845" width="60" height="30" as="geometry" />
        </mxCell>
      </root>
    </mxGraphModel>
  </diagram>
</mxfile>
